TITLE ""
FILE "P1Q_t_1530-1538.mp3" MP3
  TRACK 01 AUDIO
    TITLE "P1Q_t_1530-1538_01"
    INDEX 01 00:00:00
  TRACK 02 AUDIO
    TITLE "P1Q_t_1530-1538_02"
    INDEX 01 00:00:08
  TRACK 03 AUDIO
    TITLE "P1Q_t_1530-1538_03"
    INDEX 01 00:01:29
  TRACK 04 AUDIO
    TITLE "P1Q_t_1530-1538_04"
    INDEX 01 00:01:51
  TRACK 05 AUDIO
    TITLE "P1Q_t_1530-1538_05"
    INDEX 01 00:03:26
  TRACK 06 AUDIO
    TITLE "P1Q_t_1530-1538_06"
    INDEX 01 00:03:46
  TRACK 07 AUDIO
    TITLE "P1Q_t_1530-1538_07"
    INDEX 01 00:08:29
  TRACK 08 AUDIO
    TITLE "P1Q_t_1530-1538_08"
    INDEX 01 00:08:73
  TRACK 09 AUDIO
    TITLE "P1Q_t_1530-1538_09"
    INDEX 01 00:10:15
  TRACK 10 AUDIO
    TITLE "P1Q_t_1530-1538_10"
    INDEX 01 00:10:36
  TRACK 11 AUDIO
    TITLE "P1Q_t_1530-1538_11"
    INDEX 01 00:17:32
  TRACK 12 AUDIO
    TITLE "P1Q_t_1530-1538_12"
    INDEX 01 00:17:52
  TRACK 13 AUDIO
    TITLE "P1Q_t_1530-1538_13"
    INDEX 01 00:22:69
  TRACK 14 AUDIO
    TITLE "P1Q_t_1530-1538_14"
    INDEX 01 00:23:39
  TRACK 15 AUDIO
    TITLE "P1Q_t_1530-1538_15"
    INDEX 01 00:24:46
  TRACK 16 AUDIO
    TITLE "P1Q_t_1530-1538_16"
    INDEX 01 00:25:18
  TRACK 17 AUDIO
    TITLE "P1Q_t_1530-1538_17"
    INDEX 01 00:26:37
  TRACK 18 AUDIO
    TITLE "P1Q_t_1530-1538_18"
    INDEX 01 00:26:57
  TRACK 19 AUDIO
    TITLE "P1Q_t_1530-1538_19"
    INDEX 01 00:30:29
  TRACK 20 AUDIO
    TITLE "P1Q_t_1530-1538_20"
    INDEX 01 00:30:47
  TRACK 21 AUDIO
    TITLE "P1Q_t_1530-1538_21"
    INDEX 01 00:34:15
  TRACK 22 AUDIO
    TITLE "P1Q_t_1530-1538_22"
    INDEX 01 00:34:62
  TRACK 23 AUDIO
    TITLE "P1Q_t_1530-1538_23"
    INDEX 01 00:36:04
  TRACK 24 AUDIO
    TITLE "P1Q_t_1530-1538_24"
    INDEX 01 00:36:28
  TRACK 25 AUDIO
    TITLE "P1Q_t_1530-1538_25"
    INDEX 01 00:40:27
  TRACK 26 AUDIO
    TITLE "P1Q_t_1530-1538_26"
    INDEX 01 00:40:47
  TRACK 27 AUDIO
    TITLE "P1Q_t_1530-1538_27"
    INDEX 01 00:45:52
  TRACK 28 AUDIO
    TITLE "P1Q_t_1530-1538_28"
    INDEX 01 00:46:24
  TRACK 29 AUDIO
    TITLE "P1Q_t_1530-1538_29"
    INDEX 01 00:47:39
  TRACK 30 AUDIO
    TITLE "P1Q_t_1530-1538_30"
    INDEX 01 00:47:61
  TRACK 31 AUDIO
    TITLE "P1Q_t_1530-1538_31"
    INDEX 01 00:48:66
  TRACK 32 AUDIO
    TITLE "P1Q_t_1530-1538_32"
    INDEX 01 00:49:11
  TRACK 33 AUDIO
    TITLE "P1Q_t_1530-1538_33"
    INDEX 01 00:53:46
  TRACK 34 AUDIO
    TITLE "P1Q_t_1530-1538_34"
    INDEX 01 00:54:18
  TRACK 35 AUDIO
    TITLE "P1Q_t_1530-1538_35"
    INDEX 01 00:55:33
  TRACK 36 AUDIO
    TITLE "P1Q_t_1530-1538_36"
    INDEX 01 00:55:54
  TRACK 37 AUDIO
    TITLE "P1Q_t_1530-1538_37"
    INDEX 01 00:57:65
  TRACK 38 AUDIO
    TITLE "P1Q_t_1530-1538_38"
    INDEX 01 00:58:10
  TRACK 39 AUDIO
    TITLE "P1Q_t_1530-1538_39"
    INDEX 01 01:01:71
  TRACK 40 AUDIO
    TITLE "P1Q_t_1530-1538_40"
    INDEX 01 01:02:43
  TRACK 41 AUDIO
    TITLE "P1Q_t_1530-1538_41"
    INDEX 01 01:03:62
  TRACK 42 AUDIO
    TITLE "P1Q_t_1530-1538_42"
    INDEX 01 01:04:06
  TRACK 43 AUDIO
    TITLE "P1Q_t_1530-1538_43"
    INDEX 01 01:06:72
  TRACK 44 AUDIO
    TITLE "P1Q_t_1530-1538_44"
    INDEX 01 01:07:16
  TRACK 45 AUDIO
    TITLE "P1Q_t_1530-1538_45"
    INDEX 01 01:11:24
  TRACK 46 AUDIO
    TITLE "P1Q_t_1530-1538_46"
    INDEX 01 01:11:67
  TRACK 47 AUDIO
    TITLE "P1Q_t_1530-1538_47"
    INDEX 01 01:12:74
  TRACK 48 AUDIO
    TITLE "P1Q_t_1530-1538_48"
    INDEX 01 01:13:21
  TRACK 49 AUDIO
    TITLE "P1Q_t_1530-1538_49"
    INDEX 01 01:14:17
  TRACK 50 AUDIO
    TITLE "P1Q_t_1530-1538_50"
    INDEX 01 01:14:38
  TRACK 51 AUDIO
    TITLE "P1Q_t_1530-1538_51"
    INDEX 01 01:18:12
  TRACK 52 AUDIO
    TITLE "P1Q_t_1530-1538_52"
    INDEX 01 01:18:59
  TRACK 53 AUDIO
    TITLE "P1Q_t_1530-1538_53"
    INDEX 01 01:20:11
  TRACK 54 AUDIO
    TITLE "P1Q_t_1530-1538_54"
    INDEX 01 01:20:33
  TRACK 55 AUDIO
    TITLE "P1Q_t_1530-1538_55"
    INDEX 01 01:23:02
  TRACK 56 AUDIO
    TITLE "P1Q_t_1530-1538_56"
    INDEX 01 01:23:21
  TRACK 57 AUDIO
    TITLE "P1Q_t_1530-1538_57"
    INDEX 01 01:27:11
